<svg width="34" height="28" viewBox="0 0 34 28" fill="none" xmlns="http://www.w3.org/2000/svg">
<path d="M31.1077 0.183958L1.55768 11.579C-0.458989 12.389 -0.447322 13.514 1.18768 14.0156L8.77434 16.3823L26.3277 5.30729C27.1577 4.80229 27.916 5.07396 27.2927 5.62729L13.071 18.4623H13.0677L13.071 18.464L12.5477 26.284C13.3143 26.284 13.6527 25.9323 14.0827 25.5173L17.7677 21.934L25.4327 27.5956C26.846 28.374 27.861 27.974 28.2127 26.2873L33.2443 2.57396C33.7593 0.508958 32.456 -0.426042 31.1077 0.183958Z" fill="#254FB5"/>
<path d="M31.1077 0.183958L1.55768 11.579C-0.458989 12.389 -0.447322 13.514 1.18768 14.0156L8.77434 16.3823L26.3277 5.30729C27.1577 4.80229 27.916 5.07396 27.2927 5.62729L13.071 18.4623H13.0677L13.071 18.464L12.5477 26.284C13.3143 26.284 13.6527 25.9323 14.0827 25.5173L17.7677 21.934L25.4327 27.5956C26.846 28.374 27.861 27.974 28.2127 26.2873L33.2443 2.57396C33.7593 0.508958 32.456 -0.426042 31.1077 0.183958Z" fill="url(#paint0_linear)"/>
<defs>
<linearGradient id="paint0_linear" x1="41.9478" y1="7.19842" x2="11.2974" y2="-11.6196" gradientUnits="userSpaceOnUse">
<stop stop-color="#3171D2"/>
<stop offset="1" stop-color="#1D39A4"/>
</linearGradient>
</defs>
</svg>
