<svg width="42" height="42" viewBox="0 0 42 42" fill="none" xmlns="http://www.w3.org/2000/svg">
<path d="M38.0626 10.4303C36.8075 10.9717 35.4417 11.3613 34.0348 11.5131C35.4955 10.6454 36.5893 9.27447 37.111 7.65763C35.7404 8.47298 34.2389 9.04472 32.6731 9.34748C32.0187 8.64786 31.2272 8.09051 30.348 7.71016C29.4687 7.32982 28.5206 7.13462 27.5626 7.13674C23.6866 7.13674 20.5694 10.2785 20.5694 14.134C20.5694 14.6754 20.635 15.2168 20.7417 15.7377C14.938 15.4342 9.76179 12.6615 6.32058 8.41642C5.69356 9.4874 5.36497 10.7068 5.36902 11.9479C5.36902 14.376 6.60359 16.517 8.48621 17.7762C7.37675 17.7325 6.29328 17.4275 5.3239 16.8862V16.9723C5.3239 20.3725 7.72742 23.1903 10.9307 23.8383C10.3293 23.9945 9.71055 24.0745 9.08914 24.0762C8.63386 24.0762 8.2032 24.0311 7.76843 23.9695C8.65437 26.7422 11.2343 28.7561 14.3063 28.8217C11.9028 30.7043 8.89226 31.8117 5.62332 31.8117C5.03679 31.8117 4.49539 31.7912 3.93347 31.7256C7.03425 33.7149 10.7134 34.8633 14.6755 34.8633C27.538 34.8633 34.5762 24.2074 34.5762 14.9584C34.5762 14.6549 34.5762 14.3514 34.5557 14.0479C35.9175 13.0512 37.111 11.8166 38.0626 10.4303Z" fill="#254FB5"/>
<path d="M38.0626 10.4303C36.8075 10.9717 35.4417 11.3613 34.0348 11.5131C35.4955 10.6454 36.5893 9.27447 37.111 7.65763C35.7404 8.47298 34.2389 9.04472 32.6731 9.34748C32.0187 8.64786 31.2272 8.09051 30.348 7.71016C29.4687 7.32982 28.5206 7.13462 27.5626 7.13674C23.6866 7.13674 20.5694 10.2785 20.5694 14.134C20.5694 14.6754 20.635 15.2168 20.7417 15.7377C14.938 15.4342 9.76179 12.6615 6.32058 8.41642C5.69356 9.4874 5.36497 10.7068 5.36902 11.9479C5.36902 14.376 6.60359 16.517 8.48621 17.7762C7.37675 17.7325 6.29328 17.4275 5.3239 16.8862V16.9723C5.3239 20.3725 7.72742 23.1903 10.9307 23.8383C10.3293 23.9945 9.71055 24.0745 9.08914 24.0762C8.63386 24.0762 8.2032 24.0311 7.76843 23.9695C8.65437 26.7422 11.2343 28.7561 14.3063 28.8217C11.9028 30.7043 8.89226 31.8117 5.62332 31.8117C5.03679 31.8117 4.49539 31.7912 3.93347 31.7256C7.03425 33.7149 10.7134 34.8633 14.6755 34.8633C27.538 34.8633 34.5762 24.2074 34.5762 14.9584C34.5762 14.6549 34.5762 14.3514 34.5557 14.0479C35.9175 13.0512 37.111 11.8166 38.0626 10.4303Z" fill="url(#paint0_linear)"/>
<defs>
<linearGradient id="paint0_linear" x1="46.8492" y1="14.2706" x2="16.0456" y2="-5.25285" gradientUnits="userSpaceOnUse">
<stop stop-color="#3171D2"/>
<stop offset="1" stop-color="#1D39A4"/>
</linearGradient>
</defs>
</svg>
