<svg width="135" height="83" viewBox="0 0 135 83" fill="none" xmlns="http://www.w3.org/2000/svg">
<path d="M105.227 42.34C101.824 40.6389 95.444 40.6191 95.174 40.6191C94.3651 40.6191 93.7092 41.275 93.7092 42.084C93.7092 42.893 94.3651 43.5488 95.174 43.5488C96.8203 43.549 101.6 43.8025 103.916 44.9605C104.127 45.0658 104.35 45.1154 104.57 45.1154C105.108 45.1154 105.625 44.8185 105.882 44.3055C106.244 43.5818 105.95 42.7019 105.227 42.34Z" fill="#17234C"/>
<path d="M112.53 63.1958L106.48 61.4673C106.219 61.3927 106.036 61.1509 106.036 60.8792V58.8599C106.529 58.5188 106.998 58.1372 107.437 57.7112C109.564 55.6472 110.735 52.8786 110.735 49.9153V47.1288L111.32 45.9591C111.962 44.6749 112.301 43.2372 112.301 41.8017V34.2528C112.301 33.4438 111.646 32.788 110.837 32.788H96.7402C91.6144 32.788 87.4441 36.9583 87.4441 42.0841V42.1714C87.4441 43.3651 87.7264 44.5606 88.2602 45.6282L89.0104 47.1286V49.5212C89.0104 53.313 90.8789 56.7151 93.7092 58.7624L93.7096 60.8788C93.7096 61.2052 93.7096 61.3403 92.5 61.686L89.548 62.5294L81.0088 59.4243C81.0395 59.0214 80.9035 58.6116 80.6096 58.3028L77.8809 55.436V50.6235C78.1693 50.3858 78.4537 50.1417 78.7293 49.8835C82.1717 46.6569 84.1459 42.1015 84.1459 37.3853V33.5419C85.1853 31.28 85.7121 28.8864 85.7121 26.4214V10.7593C85.7121 9.95029 85.0563 9.29443 84.2473 9.29443H62.3197C54.6029 9.29443 48.325 15.5726 48.325 23.2892V26.4218C48.325 28.8868 48.8518 31.2804 49.8912 33.5423V36.8491C49.8912 42.3249 52.326 47.2581 56.1562 50.5105V55.4362L53.4275 58.303C53.1336 58.6118 52.9977 59.0216 53.0283 59.4245L44.0156 62.7017C43.3625 62.9392 42.7557 63.2608 42.2047 63.6505L40.7895 62.9429C45.0023 61.1091 46.3369 58.53 46.401 58.4019C46.6072 57.9896 46.6072 57.504 46.401 57.0917C45.3449 54.9796 45.217 51.1083 45.1143 47.9978C45.0801 46.9622 45.0477 45.9839 44.9857 45.1128C44.4863 38.0866 39.1449 32.788 32.5609 32.788C25.977 32.788 20.6354 38.0864 20.1361 45.1128C20.0742 45.9841 20.0418 46.9624 20.0076 47.9981C19.9049 51.1085 19.7768 54.9794 18.7209 57.0915C18.5146 57.5038 18.5146 57.9894 18.7209 58.4017C18.785 58.5298 20.1168 61.1036 24.3381 62.9396L20.407 64.905C18.3055 65.9565 17 68.0688 17 70.4183V81.2403C17 82.0493 17.6559 82.7052 18.4648 82.7052C19.2738 82.7052 19.9297 82.0493 19.9297 81.2403V70.4183C19.9297 69.1855 20.6146 68.0771 21.7172 67.5257L26.6123 65.0782L28.315 66.6964C29.5057 67.8278 31.033 68.3933 32.5609 68.3933C34.0885 68.3933 35.6166 67.8274 36.8068 66.6964L38.5094 65.0784L40.1055 65.8765C39.3539 67.079 38.9273 68.4892 38.9273 69.9663V81.2407C38.9273 82.0497 39.5832 82.7056 40.3922 82.7056C41.2012 82.7056 41.857 82.0497 41.857 81.2407V69.9663C41.857 67.9554 43.1268 66.1425 45.0168 65.4552L54.5191 61.9999L58.4748 67.9337C58.9805 68.6923 59.7908 69.1788 60.698 69.2687C60.7992 69.2786 60.8998 69.2835 61.0002 69.2835C61.8006 69.2835 62.5672 68.9685 63.1402 68.3956L65.5535 65.9823V81.2409C65.5535 82.0499 66.2094 82.7058 67.0184 82.7058C67.8273 82.7058 68.4832 82.0499 68.4832 81.2409V65.9823L70.8965 68.3956C71.4693 68.9687 72.2359 69.2837 73.0365 69.2837C73.1367 69.2837 73.2375 69.2788 73.3385 69.2689C74.2459 69.179 75.0563 68.6925 75.5619 67.9339L79.5178 62.0003L89.0199 65.4556C90.9098 66.1429 92.1797 67.9558 92.1797 69.9667V81.2411C92.1797 82.0501 92.8355 82.706 93.6445 82.706C94.4535 82.706 95.1094 82.0501 95.1094 81.2411V69.9667C95.1094 67.93 94.3002 66.0198 92.9428 64.6071L93.3047 64.5038C93.6697 64.3995 94.1678 64.2567 94.6678 64.0116L98.4078 67.7517V81.2411C98.4078 82.0501 99.0637 82.706 99.8727 82.706C100.682 82.706 101.338 82.0501 101.338 81.2411V67.7517L105.052 64.0376C105.249 64.138 105.456 64.2228 105.675 64.2851L111.725 66.0136C113.106 66.4081 114.07 67.6868 114.07 69.1231V81.2411C114.07 82.0501 114.726 82.706 115.535 82.706C116.344 82.706 117 82.0501 117 81.2411V69.1231C117 66.3853 115.162 63.9479 112.53 63.1958ZM26.3975 60.6085C23.6574 59.6226 22.283 58.3081 21.6963 57.5903C22.0963 56.5446 22.3557 55.347 22.5312 54.0827C23.3391 56.0196 24.692 57.6731 26.3975 58.8528V60.6085ZM34.7891 64.573C33.5396 65.7601 31.5824 65.7599 30.3334 64.5728L28.9711 63.2782C29.201 62.8476 29.3273 62.3593 29.3273 61.8478V60.2864C30.3492 60.6058 31.4355 60.778 32.5613 60.778C33.6857 60.778 34.7715 60.605 35.7951 60.2874L35.7949 61.8476C35.7949 62.3593 35.9211 62.8478 36.1512 63.2786L34.7891 64.573ZM32.5617 57.8483C28.1875 57.8483 24.6291 54.2897 24.6291 49.9157C24.6291 49.1067 23.9732 48.4509 23.1643 48.4509C23.0822 48.4509 23.0021 48.4593 22.9238 48.4724C22.9281 48.3464 22.9322 48.2202 22.9365 48.0954C22.9691 47.0882 23.0006 46.1368 23.0586 45.3208C23.2457 42.6888 24.2975 40.2634 26.0201 38.4911C27.7582 36.7028 30.0813 35.7181 32.5613 35.7181C35.0414 35.7181 37.3643 36.7028 39.1025 38.4911C40.8252 40.2634 41.877 42.6888 42.0641 45.3208C42.1219 46.1366 42.1535 47.0878 42.1867 48.0948C42.1896 48.1813 42.1926 48.269 42.1955 48.3562C40.6018 45.9007 38.1404 44.0911 34.9602 43.0692C32.0221 42.1253 29.4951 42.1837 29.3885 42.1864C29.0049 42.1972 28.6408 42.3577 28.3746 42.6339L25.7316 45.3749C25.1701 45.9573 25.1869 46.8847 25.7693 47.4462C26.3518 48.0077 27.2791 47.9907 27.8406 47.4085L30.0398 45.1278C31.9338 45.2204 38.027 45.929 40.3967 51.1472C39.8004 54.9925 36.4953 57.8483 32.5617 57.8483ZM38.7244 60.6134L38.7246 58.8663C40.4287 57.6931 41.7836 56.0427 42.592 54.0911C42.7676 55.3524 43.0268 56.5474 43.426 57.5907C42.8426 58.3017 41.4617 59.6278 38.7244 60.6134ZM52.8209 36.8489V33.2146C52.8209 32.994 52.7711 32.7763 52.6752 32.5776C51.7326 30.6257 51.2547 28.5546 51.2547 26.4218V23.2894C51.2547 17.188 56.2186 12.2243 62.3197 12.2243H82.7824V26.422C82.7824 28.5548 82.3045 30.6259 81.3619 32.5778C81.266 32.7765 81.2162 32.9942 81.2162 33.2147V37.3856C81.2162 41.3526 79.6215 45.0321 76.7258 47.7464C76.3643 48.0851 75.9891 48.4026 75.6012 48.6985C75.5926 48.7044 75.5844 48.7108 75.576 48.7169C72.8633 50.7765 69.5406 51.7774 66.0707 51.5526C58.6408 51.0716 52.8209 44.613 52.8209 36.8489ZM61.0688 66.3237C61.0586 66.3339 61.035 66.3579 60.9871 66.3528C60.9395 66.3481 60.9207 66.3202 60.9127 66.3081L56.357 59.4745L57.823 57.9341L64.7342 62.6581L61.0688 66.3237ZM67.0186 60.6708L59.0859 55.2485V52.5142C61.1385 53.6237 63.4367 54.3177 65.8811 54.4759C66.2672 54.5009 66.651 54.5132 67.0336 54.5132C69.8346 54.5132 72.5303 53.8437 74.9512 52.5728V55.2485L67.0186 60.6708ZM73.1244 66.3085C73.1164 66.3206 73.0977 66.3485 73.05 66.3532C73.0022 66.3593 72.9787 66.3341 72.9684 66.3241L69.3029 62.6587L76.2141 57.9345L77.6803 59.4749L73.1244 66.3085ZM99.8727 65.0726L96.5484 61.7485C96.6064 61.4851 96.6393 61.1966 96.6391 60.8784L96.6389 60.2603C97.5613 60.563 98.5336 60.7427 99.5396 60.7728C99.6525 60.7763 99.7645 60.7778 99.877 60.7778C100.989 60.7778 102.074 60.6099 103.107 60.2894V60.8792C103.107 61.1714 103.143 61.4577 103.213 61.7329L99.8727 65.0726ZM105.397 55.6089C103.844 57.1155 101.793 57.9112 99.6277 57.8444C95.3887 57.7173 91.94 53.9835 91.94 49.5216V46.7831C91.94 46.5556 91.8871 46.3313 91.7854 46.128L90.8805 44.3183C90.549 43.6552 90.3738 42.913 90.3738 42.1716V42.0843C90.3738 38.5737 93.2299 35.7179 96.7402 35.7179H109.372V41.8019C109.372 42.7851 109.139 43.7696 108.7 44.6491L107.96 46.128C107.858 46.3315 107.805 46.5556 107.805 46.7831V49.9155C107.805 52.0796 106.95 54.1015 105.397 55.6089Z" fill="#5377F3"/>
<path d="M109.27 70.3779C108.461 70.3779 107.805 71.0338 107.805 71.8428V81.2402C107.805 82.0492 108.461 82.7051 109.27 82.7051C110.079 82.7051 110.735 82.0492 110.735 81.2402V71.8428C110.735 71.034 110.079 70.3779 109.27 70.3779Z" fill="#17234C"/>
<path d="M24.7299 72.314C23.921 72.314 23.2651 72.9698 23.2651 73.7788V81.2399C23.2651 82.0489 23.921 82.7048 24.7299 82.7048C25.5389 82.7048 26.1948 82.0489 26.1948 81.2399V73.7788C26.1948 72.97 25.5389 72.314 24.7299 72.314Z" fill="#17234C"/>
<path d="M79.018 26.9521C73.4778 21.4119 61.8862 22.4711 57.1592 23.1836C55.6703 23.408 54.5899 24.668 54.5899 26.1795V29.5541C54.5899 30.3631 55.2457 31.0189 56.0547 31.0189C56.8637 31.0189 57.5196 30.3631 57.5196 29.5541V26.1793C57.5196 26.1295 57.5524 26.0869 57.5961 26.0803C59.4842 25.7957 63.2309 25.3566 67.1127 25.6154C71.6807 25.9195 74.9893 27.0662 76.9465 29.0236C77.5186 29.5957 78.4461 29.5957 79.018 29.0236C79.5901 28.4515 79.5901 27.524 79.018 26.9521Z" fill="#17234C"/>
<path d="M49.7898 73.5103C48.9808 73.5103 48.325 74.1661 48.325 74.9751V81.2401C48.325 82.0491 48.9808 82.705 49.7898 82.705C50.5988 82.705 51.2547 82.0491 51.2547 81.2401V74.9751C51.2547 74.1663 50.5988 73.5103 49.7898 73.5103Z" fill="#17234C"/>
<path d="M84.2473 73.5103C83.4384 73.5103 82.7825 74.1661 82.7825 74.9751V81.2401C82.7825 82.0491 83.4384 82.705 84.2473 82.705C85.0563 82.705 85.7122 82.0491 85.7122 81.2401V74.9751C85.7122 74.1663 85.0563 73.5103 84.2473 73.5103Z" fill="#17234C"/>
<path d="M120.74 30L119 29L123 22H129C129.53 22 130.039 21.7893 130.414 21.4142C130.789 21.0391 131 20.5304 131 20V8C131 7.46957 130.789 6.96086 130.414 6.58579C130.039 6.21071 129.53 6 129 6H109C108.47 6 107.961 6.21071 107.586 6.58579C107.211 6.96086 107 7.46957 107 8V20C107 20.5304 107.211 21.0391 107.586 21.4142C107.961 21.7893 108.47 22 109 22H118V24H109C107.939 24 106.922 23.5786 106.172 22.8284C105.421 22.0783 105 21.0609 105 20V8C105 6.93913 105.421 5.92172 106.172 5.17157C106.922 4.42143 107.939 4 109 4H129C130.061 4 131.078 4.42143 131.828 5.17157C132.579 5.92172 133 6.93913 133 8V20C133 21.0609 132.579 22.0783 131.828 22.8284C131.078 23.5786 130.061 24 129 24H124.16L120.74 30Z" fill="#5377F3"/>
<path d="M111 10H127V12H111V10Z" fill="#17234C"/>
<path d="M111 16H121V18H111V16Z" fill="#17234C"/>
<path d="M14.26 30L16 29L12 22H6C5.46957 22 4.96086 21.7893 4.58579 21.4142C4.21071 21.0391 4 20.5304 4 20V8C4 7.46957 4.21071 6.96086 4.58579 6.58579C4.96086 6.21071 5.46957 6 6 6H26C26.5304 6 27.0391 6.21071 27.4142 6.58579C27.7893 6.96086 28 7.46957 28 8V20C28 20.5304 27.7893 21.0391 27.4142 21.4142C27.0391 21.7893 26.5304 22 26 22H17V24H26C27.0609 24 28.0783 23.5786 28.8284 22.8284C29.5786 22.0783 30 21.0609 30 20V8C30 6.93913 29.5786 5.92172 28.8284 5.17157C28.0783 4.42143 27.0609 4 26 4H6C4.93913 4 3.92172 4.42143 3.17157 5.17157C2.42143 5.92172 2 6.93913 2 8V20C2 21.0609 2.42143 22.0783 3.17157 22.8284C3.92172 23.5786 4.93913 24 6 24H10.84L14.26 30Z" fill="#5377F3"/>
<path d="M24 10H8V12H24V10Z" fill="#17234C"/>
<path d="M24 16H14V18H24V16Z" fill="#17234C"/>
</svg>
