<svg width="55" height="55" viewBox="0 0 55 55" fill="none" xmlns="http://www.w3.org/2000/svg">
<path d="M41.7538 48.8892L43.5109 36.6387L45.2434 36.8872L43.4863 49.1377L41.7538 48.8892Z" fill="white"/>
<path d="M45.4849 40.8686L47.4913 42.875L45.4849 44.8813L46.7221 46.1186L49.9658 42.875L46.7221 39.6313L45.4849 40.8686Z" fill="white"/>
<path d="M40.2349 39.6313L36.9913 42.875L40.2349 46.1186L41.4721 44.8813L39.4658 42.875L41.4721 40.8686L40.2349 39.6313Z" fill="white"/>
<path d="M53.002 39.8834C52.7378 39.7968 52.5313 39.6069 52.4368 39.3636C52.3921 39.2481 52.3458 39.1335 52.2959 39.0198C52.1926 38.7809 52.2049 38.5026 52.3291 38.2559C52.855 37.2164 52.6546 35.9634 51.8304 35.14L51.3535 34.6631V2.625C51.3535 1.17775 50.1758 0 48.7285 0H3.22852C1.78127 0 0.603516 1.17775 0.603516 2.625V39.375C0.603516 40.8223 1.78127 42 3.22852 42H32.1403C32.1166 42.1435 32.1035 42.2905 32.1035 42.4392V43.3108C32.1035 44.4754 32.8473 45.5026 33.955 45.8666C34.2193 45.9532 34.4258 46.1431 34.5203 46.3864C34.5649 46.5019 34.6113 46.6165 34.6611 46.7302C34.7644 46.9691 34.7521 47.2474 34.6279 47.4941C34.102 48.5336 34.3024 49.7866 35.1266 50.61L35.7426 51.2269C36.566 52.0511 37.8181 52.2506 38.8585 51.7256C39.1053 51.6005 39.3835 51.5882 39.6233 51.6924C39.7361 51.7414 39.8508 51.7886 39.9645 51.8332C40.2095 51.9277 40.3994 52.1351 40.486 52.4003C40.8509 53.5063 41.8781 54.25 43.0428 54.25H43.9143C45.0789 54.25 46.1061 53.5062 46.4701 52.3985C46.5568 52.1343 46.7466 51.9277 46.9899 51.8332C47.1054 51.7886 47.22 51.7422 47.3338 51.6924C47.5718 51.5882 47.8509 51.6005 48.0976 51.7256C49.1371 52.2506 50.3901 52.0511 51.2135 51.2269L51.8304 50.6109C52.6546 49.7875 52.855 48.5345 52.3291 47.495C52.204 47.2482 52.1926 46.97 52.2959 46.7302C52.3449 46.6174 52.3921 46.5028 52.4368 46.389C52.5313 46.144 52.7386 45.9541 53.0038 45.8675C54.1098 45.5026 54.8535 44.4754 54.8535 43.3108V42.4392C54.8535 41.2746 54.1098 40.2474 53.002 39.8834ZM2.35352 2.625C2.35352 2.14287 2.74639 1.75 3.22852 1.75H48.7285C49.2106 1.75 49.6035 2.14287 49.6035 2.625V10.5H2.35352V2.625ZM3.22852 40.25C2.74639 40.25 2.35352 39.8571 2.35352 39.375V12.25H49.6035V33.7566C49.0978 33.7015 48.5763 33.7829 48.0976 34.0244C47.8518 34.1495 47.5735 34.1609 47.3329 34.0576C47.2209 34.0086 47.1063 33.9622 46.9916 33.9168C46.7475 33.8223 46.5568 33.6149 46.4701 33.3497C46.1061 32.2437 45.0789 31.5 43.9143 31.5H43.0428C41.8781 31.5 40.8509 32.2438 40.4869 33.3515C40.4003 33.6157 40.2104 33.8223 39.9654 33.9168C39.8508 33.9614 39.737 34.0078 39.6233 34.0576C39.3844 34.1609 39.1061 34.1495 38.8594 34.0244C37.819 33.4985 36.5669 33.6989 35.7435 34.5231L35.1275 35.1391C34.3033 35.9625 34.1029 37.2155 34.6288 38.255C34.7539 38.5018 34.7653 38.78 34.662 39.0198C34.613 39.1326 34.5658 39.2472 34.5211 39.361C34.4266 39.606 34.2193 39.7959 33.9541 39.8825C33.6916 39.9691 33.451 40.0951 33.2349 40.2491H3.22852V40.25ZM53.1035 43.3108C53.1035 43.7176 52.8436 44.0764 52.456 44.2041C51.693 44.4544 51.091 45.0196 50.8058 45.7546C50.769 45.8483 50.7305 45.9419 50.6911 46.0329C50.3796 46.7504 50.4068 47.5703 50.7673 48.2834C50.951 48.6465 50.881 49.084 50.5931 49.3719L49.9763 49.9888C49.6875 50.2775 49.25 50.3466 48.8878 50.1629C48.1755 49.8024 47.3539 49.7761 46.6381 50.0868C46.5463 50.1261 46.4526 50.1646 46.3573 50.2023C45.6231 50.4875 45.0588 51.0895 44.8076 51.8534C44.6808 52.2401 44.3211 52.5 43.9143 52.5H43.0428C42.6359 52.5 42.2771 52.2401 42.1494 51.8525C41.8991 51.0895 41.3339 50.4875 40.5989 50.2023C40.5053 50.1655 40.4116 50.127 40.3206 50.0876C39.9899 49.9432 39.6373 49.8715 39.2829 49.8715C38.869 49.8715 38.4543 49.9695 38.0701 50.1629C37.7061 50.3466 37.2695 50.2766 36.9816 49.9888L36.3648 49.3719C36.0769 49.084 36.0069 48.6465 36.1906 48.2834C36.5511 47.5703 36.5783 46.7504 36.2668 46.0338C36.2274 45.9419 36.1889 45.8483 36.1513 45.7529C35.866 45.0188 35.264 44.4544 34.5001 44.2033C34.1134 44.0773 33.8535 43.7176 33.8535 43.3108V42.4392C33.8535 42.0324 34.1134 41.6736 34.5001 41.5459C35.264 41.2956 35.866 40.7304 36.1513 39.9954C36.188 39.9017 36.2265 39.8081 36.2659 39.7171C36.5774 38.9996 36.5503 38.1797 36.1898 37.4666C36.006 37.1035 36.076 36.6651 36.3639 36.3773L36.9799 35.7612C37.2678 35.4725 37.7053 35.4025 38.0693 35.5871C38.7824 35.9476 39.6031 35.9748 40.3189 35.6632C40.4116 35.623 40.5053 35.5845 40.5989 35.5486C41.333 35.2625 41.8983 34.6605 42.1494 33.8975C42.2763 33.5099 42.6359 33.25 43.0428 33.25H43.9143C44.3211 33.25 44.6799 33.5099 44.8076 33.8975C45.0588 34.6605 45.6231 35.2625 46.3573 35.5477C46.4509 35.5845 46.5445 35.623 46.6364 35.6624C47.3521 35.9739 48.1738 35.9459 48.8869 35.5863C49.2491 35.4016 49.6875 35.4725 49.9763 35.7604L50.5923 36.3764C50.8801 36.6643 50.9501 37.1026 50.7664 37.4658C50.4059 38.1789 50.3788 38.9987 50.6903 39.7154C50.7296 39.8073 50.7681 39.9009 50.8058 39.9963C51.091 40.7304 51.693 41.2948 52.4569 41.5459C52.8436 41.6727 53.1035 42.0324 53.1035 42.4392V43.3108Z" fill="white"/>
<path d="M4.10352 8.75H9.35352V3.5H4.10352V8.75ZM5.85352 5.25H7.60352V7H5.85352V5.25Z" fill="white"/>
<path d="M11.1035 8.75H16.3535V3.5H11.1035V8.75ZM12.8535 5.25H14.6035V7H12.8535V5.25Z" fill="white"/>
<path d="M18.1035 8.75H23.3535V3.5H18.1035V8.75ZM19.8535 5.25H21.6035V7H19.8535V5.25Z" fill="white"/>
<path d="M31.2285 14H6.72852C5.28127 14 4.10352 15.1777 4.10352 16.625V30.625C4.10352 32.0723 5.28127 33.25 6.72852 33.25H19.5884L24.2793 36.3773C24.6459 36.6214 25.0711 36.75 25.5104 36.75C26.7336 36.75 27.7285 35.7551 27.7285 34.5319V33.25H31.2285C32.6758 33.25 33.8535 32.0723 33.8535 30.625V16.625C33.8535 15.1777 32.6758 14 31.2285 14ZM32.1035 30.625C32.1035 31.1071 31.7106 31.5 31.2285 31.5H25.9785V34.5319C25.9785 34.8819 25.5419 35.1146 25.2505 34.9212L20.1186 31.5H6.72852C6.24639 31.5 5.85352 31.1071 5.85352 30.625V16.625C5.85352 16.1429 6.24639 15.75 6.72852 15.75H31.2285C31.7106 15.75 32.1035 16.1429 32.1035 16.625V30.625Z" fill="white"/>
<path d="M5.85352 36.75H7.60352V38.5H5.85352V36.75Z" fill="white"/>
<path d="M9.35352 36.75H11.1035V38.5H9.35352V36.75Z" fill="white"/>
<path d="M12.8535 36.75H14.6035V38.5H12.8535V36.75Z" fill="white"/>
<path d="M16.3535 36.75H18.1035V38.5H16.3535V36.75Z" fill="white"/>
<path d="M9.35352 21C9.35352 21.9651 8.56864 22.75 7.60352 22.75V24.5C8.56864 24.5 9.35352 25.2849 9.35352 26.25C9.35352 28.1803 10.9233 29.75 12.8535 29.75V28C11.8884 28 11.1035 27.2151 11.1035 26.25C11.1035 25.2 10.6293 24.2673 9.89427 23.625C10.6293 22.9827 11.1035 22.05 11.1035 21C11.1035 20.0349 11.8884 19.25 12.8535 19.25V17.5C10.9233 17.5 9.35352 19.0697 9.35352 21Z" fill="white"/>
<path d="M28.6035 21C28.6035 19.0697 27.0338 17.5 25.1035 17.5V19.25C26.0686 19.25 26.8535 20.0349 26.8535 21C26.8535 22.05 27.3278 22.9827 28.0628 23.625C27.3278 24.2673 26.8535 25.2 26.8535 26.25C26.8535 27.2151 26.0686 28 25.1035 28V29.75C27.0338 29.75 28.6035 28.1803 28.6035 26.25C28.6035 25.2849 29.3884 24.5 30.3535 24.5V22.75C29.3884 22.75 28.6035 21.9651 28.6035 21Z" fill="white"/>
<path d="M14.6035 17.5H23.3535V19.25H14.6035V17.5Z" fill="white"/>
<path d="M14.6035 21H23.3535V22.75H14.6035V21Z" fill="white"/>
<path d="M14.6035 24.5H16.3535V26.25H14.6035V24.5Z" fill="white"/>
<path d="M18.1035 24.5H23.3535V26.25H18.1035V24.5Z" fill="white"/>
<path d="M14.6035 28H23.3535V29.75H14.6035V28Z" fill="white"/>
<path d="M35.6035 17.5H37.3535V19.25H35.6035V17.5Z" fill="white"/>
<path d="M39.1035 17.5H47.8535V19.25H39.1035V17.5Z" fill="white"/>
<path d="M35.6035 21H47.8535V22.75H35.6035V21Z" fill="white"/>
<path d="M35.6035 24.5H39.1035V26.25H35.6035V24.5Z" fill="white"/>
<path d="M40.8535 24.5H42.6035V26.25H40.8535V24.5Z" fill="white"/>
<path d="M44.3535 24.5H47.8535V26.25H44.3535V24.5Z" fill="white"/>
<path d="M35.6035 28H47.8535V29.75H35.6035V28Z" fill="white"/>
<path d="M35.6035 14H47.8535V15.75H35.6035V14Z" fill="white"/>
</svg>
