<svg width="90" height="90" viewBox="0 0 90 90" fill="none" xmlns="http://www.w3.org/2000/svg">
<path d="M84.7266 14.0625H80.5078V5.27344C80.5078 2.36566 78.1422 0 75.2344 0H14.7656C11.8579 0 9.49219 2.36566 9.49219 5.27344V14.0625H5.27344C2.36566 14.0625 0 16.4282 0 19.3359V69.9606C0 72.8684 2.36566 75.234 5.27344 75.234H36.2109V79.4524H32.8669C29.9591 79.4524 27.5934 81.8181 27.5934 84.7259V88.2422C27.5934 89.213 28.3804 90 29.3512 90H60.6489C61.6198 90 62.4067 89.213 62.4067 88.2422V84.7259C62.4067 81.8181 60.0411 79.4524 57.1333 79.4524H53.7891V75.234H84.7266C87.6343 75.234 90 72.8684 90 69.9606V19.3359C90 16.4282 87.6343 14.0625 84.7266 14.0625ZM84.7266 17.5781C85.6958 17.5781 86.4844 18.3667 86.4844 19.3359V59.7653H80.5078V17.5781H84.7266ZM14.7656 3.51562H75.2344C76.2036 3.51562 76.9922 4.30418 76.9922 5.27344V14.0625H13.0078V5.27344C13.0078 4.30418 13.7964 3.51562 14.7656 3.51562ZM5.27344 17.5781H9.49219V30.76C9.49219 31.7308 10.2792 32.5178 11.25 32.5178C12.2208 32.5178 13.0078 31.7308 13.0078 30.76V17.5781H76.9922V59.7653H68.0273V53.9726C68.0273 53.0017 67.2404 52.2148 66.2695 52.2148H63.9824C63.5804 50.8307 63.0288 49.5 62.3331 48.2356L63.9512 46.6177C64.6376 45.9313 64.6376 44.8182 63.9512 44.1316L58.6144 38.7949C57.928 38.1087 56.815 38.1087 56.1284 38.7949L54.5105 40.413C53.2463 39.7172 51.9154 39.1656 50.5313 38.7638V36.4767C50.5313 35.5059 49.7443 34.7189 48.7735 34.7189H41.2262C40.2553 34.7189 39.4683 35.5059 39.4683 36.4767V38.7638C38.0842 39.1658 36.7536 39.7172 35.4892 40.413L33.8713 38.7949C33.1849 38.1087 32.0718 38.1087 31.3852 38.7949L26.0485 44.1316C25.3621 44.8181 25.3621 45.9311 26.0485 46.6177L27.6666 48.2356C26.9708 49.4998 26.4192 50.8307 26.0172 52.2148H23.7305C22.7596 52.2148 21.9727 53.0017 21.9727 53.9726V59.7653H13.0078V46.5803C13.0078 45.6094 12.2208 44.8225 11.25 44.8225C10.2792 44.8225 9.49219 45.6094 9.49219 46.5803V59.7653H3.51562V19.3359C3.51562 18.3667 4.30418 17.5781 5.27344 17.5781ZM31.1212 46.7181L29.7777 45.3746L32.6285 42.5238L33.972 43.8673C34.5586 44.4535 35.4753 44.5504 36.1714 44.0991C37.8348 43.0205 39.6589 42.2645 41.593 41.8521C42.4044 41.6791 42.9843 40.9625 42.9843 40.133V38.2342H47.016V40.133C47.016 40.9625 47.5959 41.6791 48.4073 41.8521C50.3413 42.2645 52.1654 43.0204 53.829 44.0991C54.5251 44.5504 55.4418 44.4537 56.0283 43.8673L57.3718 42.5238L60.2227 45.3746L58.8792 46.7181C58.2928 47.3047 58.1959 48.2214 58.6473 48.9175C59.7259 50.5811 60.4819 52.4051 60.8943 54.3391C61.0673 55.1503 61.7839 55.7304 62.6135 55.7304H64.5117V59.7653H53.553C53.7094 59.1061 53.7901 58.4286 53.7901 57.7463C53.7901 52.8993 49.8468 48.9561 45 48.9561C40.1532 48.9561 36.2099 52.8994 36.2099 57.7463C36.2099 58.4286 36.2906 59.1061 36.447 59.7653H25.4883V55.7304H27.3869C28.2164 55.7304 28.9331 55.1505 29.106 54.3391C29.5184 52.405 30.2745 50.5809 31.353 48.9175C31.8045 48.2215 31.7078 47.3047 31.1212 46.7181ZM39.7255 57.7463C39.7255 54.8379 42.0915 52.4718 45 52.4718C47.9085 52.4718 50.2745 54.8379 50.2745 57.7463C50.2745 58.4404 50.134 59.1261 49.8674 59.7653H40.1326C39.866 59.1261 39.7255 58.4404 39.7255 57.7463ZM58.8909 84.7259V86.4844H31.1091V84.7259C31.1091 83.7566 31.8976 82.968 32.8669 82.968H57.1333C58.1026 82.968 58.8909 83.7566 58.8909 84.7259ZM50.2734 79.4524H39.7266V75.234H50.2734V79.4524ZM84.7266 71.7184H5.27344C4.30418 71.7184 3.51562 70.9298 3.51562 69.9606V63.2809H86.4844V69.9606C86.4844 70.9298 85.6958 71.7184 84.7266 71.7184Z" fill="#3B64F2"/>
<path d="M50.2734 10.5469H69.2578C70.2287 10.5469 71.0156 9.7599 71.0156 8.78906C71.0156 7.81822 70.2287 7.03125 69.2578 7.03125H50.2734C49.3026 7.03125 48.5156 7.81822 48.5156 8.78906C48.5156 9.7599 49.3026 10.5469 50.2734 10.5469Z" fill="#22346D"/>
<path d="M28.4766 10.5469C28.9389 10.5469 29.3924 10.3588 29.7193 10.0318C30.0463 9.70488 30.2344 9.25137 30.2344 8.78906C30.2344 8.32676 30.0463 7.87324 29.7193 7.54629C29.3924 7.21934 28.9389 7.03125 28.4766 7.03125C28.0143 7.03125 27.5607 7.21934 27.2338 7.54629C26.9068 7.87324 26.7188 8.32676 26.7188 8.78906C26.7188 9.25137 26.9068 9.70488 27.2338 10.0318C27.5607 10.3588 28.0143 10.5469 28.4766 10.5469Z" fill="#22346D"/>
<path d="M20.7422 10.5469C21.2045 10.5469 21.658 10.3588 21.985 10.0318C22.3119 9.70488 22.5 9.25137 22.5 8.78906C22.5 8.32676 22.3119 7.87324 21.985 7.54629C21.658 7.21934 21.2045 7.03125 20.7422 7.03125C20.2799 7.03125 19.8264 7.21934 19.4994 7.54629C19.1725 7.87324 18.9844 8.32676 18.9844 8.78906C18.9844 9.25137 19.1725 9.70488 19.4994 10.0318C19.8264 10.3588 20.2799 10.5469 20.7422 10.5469Z" fill="#22346D"/>
<path d="M36.2109 10.5469C36.6732 10.5469 37.1268 10.3588 37.4537 10.0318C37.7807 9.70488 37.9688 9.25137 37.9688 8.78906C37.9688 8.32676 37.7807 7.87324 37.4537 7.54629C37.1268 7.21934 36.6732 7.03125 36.2109 7.03125C35.7486 7.03125 35.2951 7.21934 34.9682 7.54629C34.6412 7.87324 34.4531 8.32676 34.4531 8.78906C34.4531 9.25137 34.6412 9.70488 34.9682 10.0318C35.2951 10.3588 35.7486 10.5469 36.2109 10.5469Z" fill="#22346D"/>
<path d="M19.6875 26.0151H23.8707C24.8416 26.0151 25.6286 25.2282 25.6286 24.2573C25.6286 23.2865 24.8416 22.4995 23.8707 22.4995H19.6875C18.7167 22.4995 17.9297 23.2865 17.9297 24.2573C17.9297 25.2282 18.7167 26.0151 19.6875 26.0151Z" fill="#22346D"/>
<path d="M31.605 26.0151H47.7309C48.7017 26.0151 49.4887 25.2282 49.4887 24.2573C49.4887 23.2865 48.7017 22.4995 47.7309 22.4995H31.605C30.6342 22.4995 29.8472 23.2865 29.8472 24.2573C29.8472 25.2282 30.6342 26.0151 31.605 26.0151Z" fill="#22346D"/>
<path d="M19.6875 34.4521H29.8828C30.8537 34.4521 31.6406 33.6652 31.6406 32.6943C31.6406 31.7235 30.8537 30.9365 29.8828 30.9365H19.6875C18.7167 30.9365 17.9297 31.7235 17.9297 32.6943C17.9297 33.6652 18.7167 34.4521 19.6875 34.4521Z" fill="#22346D"/>
<path d="M55.4652 26.0151H70.3124C71.2832 26.0151 72.0702 25.2282 72.0702 24.2573C72.0702 23.2865 71.2832 22.4995 70.3124 22.4995H55.4652C54.4944 22.4995 53.7074 23.2865 53.7074 24.2573C53.7074 25.2282 54.4944 26.0151 55.4652 26.0151Z" fill="#22346D"/>
<path d="M70.3125 30.9365H58.2822C57.3113 30.9365 56.5244 31.7235 56.5244 32.6943C56.5244 33.6652 57.3113 34.4521 58.2822 34.4521H70.3125C71.2833 34.4521 72.0703 33.6652 72.0703 32.6943C72.0703 31.7235 71.2833 30.9365 70.3125 30.9365Z" fill="#22346D"/>
<path d="M11.25 40.4277C11.7123 40.4277 12.1658 40.2396 12.4928 39.9127C12.8197 39.5857 13.0078 39.1322 13.0078 38.6699C13.0078 38.2076 12.8197 37.7541 12.4928 37.4271C12.1658 37.1002 11.7123 36.9121 11.25 36.9121C10.7877 36.9121 10.3342 37.1002 10.0072 37.4271C9.68027 37.7541 9.49219 38.2076 9.49219 38.6699C9.49219 39.1322 9.68027 39.5857 10.0072 39.9127C10.3342 40.2396 10.7877 40.4277 11.25 40.4277Z" fill="#22346D"/>
</svg>
