<svg width="108" height="109" viewBox="0 0 108 109" fill="none" xmlns="http://www.w3.org/2000/svg">
<g clip-path="url(#clip0)">
<path d="M106.418 92.3985H101.449V38.1737C101.449 35.5565 99.3196 33.4275 96.7025 33.4275H87.1385C86.2648 33.4275 85.5565 34.1359 85.5565 35.0096C85.5565 35.8833 86.2648 36.5916 87.1385 36.5916H96.7025C97.5748 36.5916 98.2846 37.3012 98.2846 38.1737V92.3977H94.8948V41.5635C94.8948 40.6897 94.1864 39.9814 93.3127 39.9814H71.9532C71.9366 38.8463 71.8902 37.7163 71.8161 36.5916H80.2429C81.1166 36.5916 81.825 35.8833 81.825 35.0096C81.825 34.1359 81.1166 33.4275 80.2429 33.4275H71.5322C71.0471 29.2125 70.1535 25.0902 68.8569 21.107C66.8972 15.0868 63.9707 9.10287 59.9597 4.18018C58.0753 1.8491 56.0704 0.666992 54 0.666992C51.9296 0.666992 49.9247 1.8491 48.0403 4.18018C44.0293 9.10266 41.1028 15.0868 39.1431 21.107C37.8465 25.0902 36.9527 29.2125 36.4678 33.4275H11.2975C8.68036 33.4275 6.55135 35.5565 6.55135 38.1737V92.3983H1.58204C0.708334 92.3983 0 93.1066 0 93.9804V100.757C0 105.119 3.54842 108.667 7.91022 108.667H100.09C104.452 108.667 108 105.119 108 100.757V93.9804C108 93.1066 107.292 92.3985 106.418 92.3985ZM42.9173 19.9483C46.2575 17.9224 50.0765 16.8519 54 16.8519C57.9235 16.8519 61.7425 17.9224 65.0827 19.9483C67.4974 26.4796 68.8474 33.441 68.7986 40.9678C68.748 48.77 65.0695 58.1747 62.6506 66.1891H45.3192C43.718 59.9943 39.2016 47.3544 39.2016 40.9678C39.2014 33.6783 40.5026 26.4798 42.9173 19.9483ZM71.6499 45.0775L75.4559 48.8759L78.1595 65.0981L67.765 60.3586C69.4642 54.8805 71.0095 49.6606 71.6499 45.0775ZM40.2054 60.3718L29.8405 65.0979L32.5441 48.8757L36.4311 44.9963C37.1645 49.5658 38.7938 55.5918 40.2054 60.3718ZM45.1494 69.3536H62.8506L64.5446 72.7413H43.4554L45.1494 69.3536ZM57.9916 75.9056L54 83.8827L50.0084 75.9056H57.9916ZM40.8979 82.4529C41.7655 82.4517 42.4703 81.7516 42.4775 80.884C42.4867 79.7538 42.4844 77.4596 42.4815 75.9054H46.4703L52.5852 88.1262C52.8533 88.6619 53.4009 89.0003 54 89.0003C54.5991 89.0003 55.1469 88.6619 55.4148 88.1262L61.5297 75.9054H65.5226V80.8709C65.5226 81.7446 66.2309 82.4529 67.1046 82.4529C70.1746 82.4529 72.0747 85.0359 72.0747 87.429C72.0747 88.3027 72.7831 89.011 73.6568 89.011H80.2092C82.0941 89.011 84.0639 90.5665 84.8382 92.3979H23.162C23.9363 90.5667 25.9061 89.011 27.791 89.011H34.3434C35.2171 89.011 35.9255 88.3027 35.9255 87.429C35.9255 84.9216 38.3884 82.4567 40.8979 82.4529ZM91.7307 92.3977H88.1567C87.329 88.8545 83.8561 85.8468 80.209 85.8468H75.0846C74.448 82.6251 71.9058 80.0809 68.6866 79.4433V74.3234C68.6866 74.0797 68.6286 73.8338 68.5196 73.6159L65.524 67.6254C65.9457 66.218 66.3828 64.8007 66.8173 63.4041L79.5527 69.211C80.5813 69.68 81.9836 68.7955 81.7695 67.5115L78.4934 47.8549C78.4392 47.5292 78.2842 47.2284 78.0504 46.9951L74.1934 43.1455H91.7307V92.3977ZM50.5075 6.16111C51.7592 4.61493 52.9341 3.83108 54 3.83108C55.0659 3.83108 56.241 4.61493 57.4925 6.16111C59.6949 8.96492 61.6077 12.1024 63.2039 15.4775C60.2957 14.3008 57.1776 13.6878 54 13.6878C50.8224 13.6878 47.7043 14.3008 44.7961 15.4775C46.3923 12.1024 48.3053 8.96492 50.5075 6.16111ZM9.71544 38.1737C9.71544 37.3012 10.4252 36.5916 11.2975 36.5916H36.1839C36.1096 37.7163 36.0634 38.8463 36.0468 39.9814H14.6873C13.8136 39.9814 13.1052 40.6897 13.1052 41.5635V70.8756C13.1052 71.7493 13.8136 72.4576 14.6873 72.4576C15.561 72.4576 16.2693 71.7493 16.2693 70.8756V43.1455H33.8066L29.9496 46.9951C29.7158 47.2284 29.561 47.529 29.5066 47.8549L26.2305 67.5115C26.0164 68.7955 27.4187 69.68 28.4473 69.211L41.1277 63.4292C41.7176 65.3447 42.202 66.8439 42.4648 67.6476L39.4804 73.6161C39.3714 73.8348 39.3125 74.0842 39.3134 74.3286C39.3134 74.3664 39.3226 77.3533 39.3191 79.4669C36.244 80.1571 33.6279 82.7738 32.9384 85.8472H27.7908C24.1437 85.8472 20.671 88.855 19.843 92.3981H16.2693V77.7716C16.2693 76.8979 15.561 76.1895 14.6873 76.1895C13.8136 76.1895 13.1052 76.8979 13.1052 77.7716V92.3981H9.71544V38.1737ZM104.836 100.757C104.836 103.374 102.707 105.503 100.09 105.503H7.91022C5.2931 105.503 3.16409 103.374 3.16409 100.757V95.5624L33.6882 95.5626L39.7779 101.652C40.0744 101.949 40.4769 102.116 40.8965 102.116H50.5279C51.4017 102.116 52.11 101.407 52.11 100.534C52.11 99.6599 51.4017 98.9516 50.5279 98.9516H41.5516L38.1629 95.5628H69.8371L66.4484 98.9516H57.4235C56.5498 98.9516 55.8415 99.6599 55.8415 100.534C55.8415 101.407 56.5498 102.116 57.4235 102.116H67.1035C67.5231 102.116 67.9256 101.949 68.2222 101.652L74.3118 95.5626L104.836 95.5624V100.757Z" fill="#3153D2"/>
<path d="M53.9999 49.705C60.2894 49.705 65.4064 44.5883 65.4064 38.299C65.4064 32.0097 60.2894 26.8929 53.9999 26.8929C47.7104 26.8929 42.5935 32.0097 42.5935 38.299C42.5935 44.5883 47.7104 49.705 53.9999 49.705ZM53.9999 30.0572C58.5448 30.0572 62.2423 33.7545 62.2423 38.2992C62.2423 42.8438 58.5448 46.5411 53.9999 46.5411C49.4551 46.5411 45.7575 42.8438 45.7575 38.2992C45.7575 33.7545 49.4551 30.0572 53.9999 30.0572Z" fill="#17234C"/>
<path d="M54 43.1574C56.6789 43.1574 58.8581 40.978 58.8581 38.2993C58.8581 35.6204 56.6787 33.4412 54 33.4412C51.3213 33.4412 49.1419 35.6206 49.1419 38.2993C49.1419 40.9782 51.3211 43.1574 54 43.1574ZM54 36.6052C54.934 36.6052 55.694 37.3652 55.694 38.2993C55.694 39.2333 54.934 39.9933 54 39.9933C53.066 39.9933 52.306 39.2333 52.306 38.2993C52.306 37.3652 53.066 36.6052 54 36.6052Z" fill="#17234C"/>
</g>
<defs>
<clipPath id="clip0">
<rect width="108" height="108" fill="white" transform="translate(0 0.666992)"/>
</clipPath>
</defs>
</svg>
