<svg width="94" height="94" viewBox="0 0 94 94" fill="none" xmlns="http://www.w3.org/2000/svg">
<path d="M16.4284 0H51.8881C54.042 0 55.7944 1.73698 55.7944 3.872V33.0012C59.783 29.6022 64.9501 27.547 70.589 27.547C83.1834 27.547 93.4294 37.793 93.4294 50.3874C93.4294 61.0204 86.126 69.9793 76.2723 72.512V88.5752C76.2723 91.5666 73.7321 94 70.6099 94C67.4877 94 64.9475 91.5665 64.9475 88.5752V72.5222C61.5233 71.6491 58.4064 69.9995 55.7946 67.7738V71.2852C55.7946 73.4206 54.0422 75.1576 51.8883 75.1576H4.47658C2.32265 75.1576 0.570244 73.4204 0.570244 71.2852V22.3076L16.4284 0ZM16.057 6.89157L5.77954 21.3492H16.057V6.89157ZM68.6374 88.5753C68.6376 89.5157 69.5407 90.3101 70.6098 90.3101C71.6788 90.3101 72.5819 89.5157 72.5819 88.5753V73.1402C71.9247 73.1975 71.2604 73.2282 70.5886 73.2282C69.9314 73.2282 69.2807 73.1986 68.6372 73.1439V88.5753H68.6374ZM70.589 69.5377C81.1484 69.5377 89.7392 60.947 89.7392 50.3876C89.7392 39.8282 81.1484 31.2374 70.589 31.2374C60.0294 31.2374 51.4389 39.8284 51.4389 50.3876C51.4387 60.947 60.0296 69.5377 70.589 69.5377ZM4.26067 71.285C4.26067 71.3711 4.3532 71.4675 4.47694 71.4675H51.8883C52.012 71.4675 52.1046 71.3711 52.1046 71.2852V63.7874C49.3664 60.0208 47.749 55.3898 47.749 50.3876C47.749 45.3854 49.3668 40.7542 52.1046 36.9878V3.872C52.1046 3.78608 52.0122 3.69006 51.8883 3.69006H19.0883V22.2683C19.0883 23.433 18.1362 24.3804 16.9661 24.3804H4.26067V71.285Z" fill="#3B64F2"/>
<path d="M34.7191 22.4346H43.302C44.3207 22.4346 45.1471 23.2607 45.1471 24.2797C45.1471 25.2986 44.3209 26.1248 43.302 26.1248H34.7191C33.7004 26.1248 32.874 25.2986 32.874 24.2797C32.874 23.2607 33.7004 22.4346 34.7191 22.4346Z" fill="#22346D"/>
<path d="M14.2684 29.8149H43.3021C44.3209 29.8149 45.1472 30.6411 45.1472 31.6601C45.1472 32.679 44.3211 33.5052 43.3021 33.5052H14.2685C13.2496 33.5052 12.4234 32.679 12.4234 31.6601C12.4232 30.6409 13.2494 29.8149 14.2684 29.8149Z" fill="#22346D"/>
<path d="M14.2684 37.1953H43.3021C44.3209 37.1953 45.1472 38.0215 45.1472 39.0404C45.1472 40.0594 44.3211 40.8856 43.3021 40.8856H14.2685C13.2496 40.8856 12.4234 40.0594 12.4234 39.0404C12.4232 38.0213 13.2494 37.1953 14.2684 37.1953Z" fill="#22346D"/>
<path d="M14.2684 44.5757H43.3021C44.3209 44.5757 45.1472 45.4019 45.1472 46.4208C45.1472 47.4396 44.3211 48.2659 43.3021 48.2659H14.2685C13.2496 48.2659 12.4234 47.4397 12.4234 46.4208C12.4232 45.4017 13.2494 44.5757 14.2684 44.5757Z" fill="#22346D"/>
<path d="M28.8852 51.9561H43.3021C44.3209 51.9561 45.1472 52.7822 45.1472 53.8012C45.1472 54.8201 44.3211 55.6463 43.3021 55.6463H28.8852C27.8663 55.6463 27.0401 54.8201 27.0401 53.8012C27.0401 52.782 27.8663 51.9561 28.8852 51.9561Z" fill="#22346D"/>
<path d="M22.7626 51.9561H22.861C23.8797 51.9561 24.7061 52.7822 24.7061 53.8012C24.7061 54.8201 23.8799 55.6463 22.861 55.6463H22.7626C21.7438 55.6463 20.9174 54.8201 20.9174 53.8012C20.9174 52.782 21.7436 51.9561 22.7626 51.9561Z" fill="#22346D"/>
<path d="M70.589 34.0049C79.6226 34.0049 86.9716 41.354 86.9716 50.3875C86.9716 59.4211 79.6226 66.7702 70.589 66.7702C61.5554 66.7702 54.2063 59.4211 54.2063 50.3875C54.2063 41.354 61.5554 34.0049 70.589 34.0049ZM70.589 63.0799C77.5878 63.0799 83.2814 57.3861 83.2814 50.3875C83.2814 43.3887 77.5876 37.6951 70.589 37.6951C63.5902 37.6951 57.8966 43.3889 57.8966 50.3875C57.8964 57.3861 63.5904 63.0799 70.589 63.0799Z" fill="#22346D"/>
<path d="M71.0456 42.9584C71.3583 41.9888 72.397 41.4558 73.3681 41.7689C77.1222 42.9795 79.6444 46.4428 79.6444 50.3873C79.6444 50.5375 79.6406 50.6882 79.6328 50.8384C79.5822 51.8239 78.7674 52.5882 77.7918 52.5882C77.7596 52.5882 77.7271 52.5875 77.695 52.5857C76.6773 52.5333 75.8949 51.6655 75.9476 50.648C75.9518 50.5612 75.954 50.474 75.954 50.3871C75.954 48.05 74.4595 45.9979 72.2353 45.2806C71.2655 44.9682 70.7329 43.9285 71.0456 42.9584Z" fill="#22346D"/>
<path d="M74.3332 54.2303L74.3648 54.1989C75.0854 53.4786 76.2534 53.4786 76.9742 54.1989C77.6946 54.9193 77.6946 56.0877 76.9742 56.8083L76.9417 56.8404C76.5815 57.2003 76.1097 57.3802 75.6378 57.3802C75.1654 57.3802 74.6936 57.1999 74.3332 56.8397C73.6126 56.1193 73.6126 54.9511 74.3332 54.2303Z" fill="#22346D"/>
</svg>
