<svg width="43" height="58" viewBox="0 0 43 58" fill="none" xmlns="http://www.w3.org/2000/svg">
<path d="M14.2569 25.9373H29.6479C33.5689 25.9373 36.7589 22.7473 36.7589 18.8263C36.7589 14.9053 33.5689 11.7153 29.6479 11.7153H14.2569C13.1289 11.7153 12.2113 12.6329 12.2113 13.761V23.8917C12.2113 25.0197 13.1289 25.9373 14.2569 25.9373ZM15.1336 14.6377H29.6479C31.9575 14.6377 33.8365 16.5167 33.8365 18.8263C33.8365 21.1359 31.9575 23.015 29.6479 23.015H15.1336V14.6377Z" fill="white"/>
<path d="M42.6035 18.8262C42.6035 12.7222 38.3591 7.59413 32.6676 6.22959V3.43526C32.6676 1.55543 31.1381 0.0258789 29.2582 0.0258789H27.31C25.4302 0.0258789 23.9006 1.55543 23.9006 3.43526V5.87054H20.9783V3.43526C20.9783 1.55543 19.4487 0.0258789 17.5689 0.0258789H15.6207C13.7408 0.0258789 12.2113 1.55543 12.2113 3.43526V5.87054H4.12618C2.24634 5.87054 0.716797 7.40008 0.716797 9.27992V11.2281C0.716797 13.108 2.24634 14.6375 4.12618 14.6375H6.36663V17.7547C6.36663 18.5616 7.02065 19.2158 7.8278 19.2158C8.63495 19.2158 9.28896 18.5616 9.28896 17.7547V13.7608C9.28896 12.6328 8.37135 11.7152 7.24333 11.7152H4.12618C3.85752 11.7152 3.63913 11.4966 3.63913 11.2281V9.27992C3.63913 9.01146 3.85752 8.79287 4.12618 8.79287H29.6479C35.1802 8.79287 39.6812 13.2938 39.6812 18.8262C39.6812 22.176 38.0166 25.2921 35.2287 27.1624C34.6616 27.5427 34.3232 28.1773 34.3232 28.8595C34.3232 29.5418 34.6616 30.1763 35.2287 30.5566C38.0166 32.4269 39.6812 35.5431 39.6812 38.8929C39.6812 44.4252 35.1802 48.9262 29.6479 48.9262H4.12618C3.85752 48.9262 3.63913 48.7076 3.63913 48.4391V46.4909C3.63913 46.2225 3.85752 46.0039 4.12618 46.0039H7.24333C8.37135 46.0039 9.28896 45.0863 9.28896 43.9582V24.5734C9.28896 23.7665 8.63495 23.1123 7.8278 23.1123C7.02065 23.1123 6.36663 23.7665 6.36663 24.5734V43.0815H4.12618C2.24634 43.0815 0.716797 44.6111 0.716797 46.4909V48.4391C0.716797 50.319 2.24634 51.8485 4.12618 51.8485H12.2113V54.2838C12.2113 56.1636 13.7408 57.6932 15.6207 57.6932H17.5689C19.4487 57.6932 20.9783 56.1636 20.9783 54.2838V51.8485H23.9006V54.2838C23.9006 56.1636 25.4302 57.6932 27.31 57.6932H29.2582C31.1381 57.6932 32.6676 56.1636 32.6676 54.2838V51.4895C38.3591 50.1249 42.6035 44.9968 42.6035 38.8929C42.6035 34.9777 40.8439 31.3104 37.8417 28.8595C40.8439 26.4089 42.6035 22.7413 42.6035 18.8262ZM15.1336 3.43526C15.1336 3.1668 15.352 2.94821 15.6207 2.94821H17.5689C17.8376 2.94821 18.056 3.1668 18.056 3.43526V5.87054H15.1336V3.43526ZM26.8229 5.87054V3.43526C26.8229 3.1668 27.0413 2.94821 27.31 2.94821H29.2582C29.5269 2.94821 29.7453 3.1668 29.7453 3.43526V5.87307C29.7127 5.87288 29.6806 5.87054 29.6479 5.87054H26.8229ZM18.056 54.2838C18.056 54.5523 17.8376 54.7708 17.5689 54.7708H15.6207C15.352 54.7708 15.1336 54.5523 15.1336 54.2838V51.8485H18.056V54.2838ZM29.7453 54.2838C29.7453 54.5523 29.5269 54.7708 29.2582 54.7708H27.31C27.0413 54.7708 26.8229 54.5523 26.8229 54.2838V51.8485H29.6479C29.6806 51.8485 29.7127 51.8464 29.7453 51.846V54.2838Z" fill="white"/>
<path d="M12.2113 43.9581C12.2113 45.0861 13.1289 46.0037 14.2569 46.0037H29.6479C33.5689 46.0037 36.7589 42.8137 36.7589 38.8927C36.7589 34.9718 33.5689 31.7817 29.6479 31.7817H25.4592C24.652 31.7817 23.998 32.436 23.998 33.2429C23.998 34.0499 24.652 34.7041 25.4592 34.7041H29.6479C31.9575 34.7041 33.8365 36.5831 33.8365 38.8927C33.8365 41.2024 31.9575 43.0814 29.6479 43.0814H15.1336V34.7041H18.6404C19.4476 34.7041 20.1016 34.0499 20.1016 33.2429C20.1016 32.436 19.4476 31.7817 18.6404 31.7817H14.2569C13.1289 31.7817 12.2113 32.6993 12.2113 33.8274V43.9581Z" fill="white"/>
</svg>
