<svg width="90" height="90" viewBox="0 0 90 90" fill="none" xmlns="http://www.w3.org/2000/svg">
<path d="M57.6562 1.40625V14.6559C55.3261 15.3239 53.197 16.5333 51.4702 18.2602L37.9491 31.7812C36.9028 32.8275 36.0422 34.027 35.3644 35.3377C34.0608 36.0098 32.85 36.8803 31.7827 37.9477L18.2616 51.4687C15.8245 53.9058 14.3845 57.0684 14.1187 60.4673H1.40625V88.5923H32.3438V75.3427C34.6739 74.6747 36.803 73.4653 38.5298 71.7384L52.0509 58.2173C53.0972 57.1711 53.9578 55.9716 54.6356 54.6609C55.9392 53.9887 57.15 53.1183 58.2173 52.0509L71.7384 38.5298C74.1755 36.0928 75.6155 32.9302 75.8812 29.5312H88.5938V1.40625H57.6562ZM55.3275 43.0116C53.865 39.1345 50.7923 36.1181 46.9828 34.6781L57.4341 24.2269C57.5002 24.1608 57.5859 24.113 57.6562 24.0497V29.5312H67.3861C67.1597 30.6703 66.6 31.7377 65.7745 32.5645L55.3275 43.0116ZM39.9361 33.7711L53.4572 20.25C54.6539 19.0533 56.0841 18.1477 57.6548 17.5767V20.6438C56.8378 21.06 56.0855 21.5986 55.4456 22.2384L43.7962 33.8878C43.1803 33.8048 42.5545 33.75 41.9175 33.75C41.2045 33.75 40.5042 33.8189 39.8109 33.9202C39.8559 33.8737 39.8897 33.8175 39.9361 33.7711ZM20.2486 53.4586L33.7697 39.9375C35.9466 37.7606 38.8392 36.5625 41.9175 36.5625C47.2233 36.5625 51.8034 40.1808 53.0803 45.2587L52.2534 46.0856C51.7697 46.568 51.1959 46.942 50.5828 47.2303C50.1525 42.8273 46.4316 39.375 41.9175 39.375C39.6267 39.375 37.3823 40.3045 35.7595 41.9245L22.237 55.447C20.617 57.0698 19.6875 59.3128 19.6875 61.605C19.6875 63.9281 20.6311 66.1556 22.2609 67.7798L20.7309 70.207C18.2939 68.033 16.875 64.9125 16.875 61.605C16.875 58.5267 18.0731 55.6341 20.2486 53.4586ZM47.7816 47.7816C44.775 47.6269 42.3731 45.2236 42.217 42.217C45.225 42.3731 47.6269 44.775 47.7816 47.7816ZM34.6725 46.9884C36.135 50.8655 39.2077 53.8819 43.0172 55.3219L32.5659 65.7731C32.4984 65.8392 32.4141 65.887 32.3438 65.9503V60.4688H22.6139C22.8403 59.3297 23.4 58.2623 24.2255 57.4355L34.6725 46.9884ZM29.5312 85.7812H4.21875V63.2812H14.1652C14.6461 67.3622 16.8581 71.0733 20.2964 73.4316L21.5016 74.2584L25.9861 67.1428L24.9258 66.368C23.8725 65.5987 23.123 64.5019 22.7573 63.2812H29.5312V85.7812ZM50.0639 56.2289L36.5428 69.75C35.3461 70.9467 33.9159 71.8523 32.3452 72.4233V69.3562C33.1622 68.94 33.9145 68.4014 34.5544 67.7616L46.2037 56.1122C46.8197 56.1952 47.4455 56.25 48.0825 56.25C48.7955 56.25 49.4958 56.1811 50.1891 56.0798C50.1441 56.1263 50.1103 56.1825 50.0639 56.2289ZM69.7514 36.5414L56.2303 50.0625C54.0534 52.2394 51.1608 53.4375 48.0825 53.4375C42.7767 53.4375 38.1966 49.8192 36.9197 44.7412L37.7466 43.9144C38.2303 43.432 38.8041 43.058 39.4172 42.7697C39.8475 47.1727 43.5684 50.625 48.0825 50.625C50.3733 50.625 52.6177 49.6955 54.2405 48.0755L67.763 34.553C69.383 32.9302 70.3125 30.6872 70.3125 28.395C70.3125 26.1787 69.4884 24.0961 68.0119 22.5L69.8288 20.3259C71.9381 22.4719 73.125 25.3448 73.125 28.395C73.125 31.4733 71.9269 34.3659 69.7514 36.5414ZM85.7812 26.7188H75.8377C75.4045 22.9936 73.5384 19.5933 70.5656 17.2083L69.4912 16.3462L64.0603 22.8417L65.212 23.7361C66.2048 24.5067 66.8812 25.5544 67.2272 26.7188H60.4688V4.21875H85.7812V26.7188Z" fill="#3B64F2"/>
<path d="M80.1562 15.4688H82.9688V7.03125H71.7188V9.84375H80.1562V15.4688Z" fill="#22346D"/>
<path d="M66.0938 7.03125H68.9062V9.84375H66.0938V7.03125Z" fill="#22346D"/>
<path d="M9.84375 71.7188H7.03125V82.9688H15.4688V80.1562H9.84375V71.7188Z" fill="#22346D"/>
<path d="M7.03125 66.0938H9.84375V68.9062H7.03125V66.0938Z" fill="#22346D"/>
<path d="M61.875 54.8438H64.6875V57.6562H61.875V54.8438Z" fill="#22346D"/>
<path d="M61.875 60.4688H64.6875V63.2812H61.875V60.4688Z" fill="#22346D"/>
<path d="M64.6875 57.6562H67.5V60.4688H64.6875V57.6562Z" fill="#22346D"/>
<path d="M59.0625 57.6562H61.875V60.4688H59.0625V57.6562Z" fill="#22346D"/>
<path d="M70.3125 67.5H73.125V70.3125H70.3125V67.5Z" fill="#22346D"/>
<path d="M70.3125 73.125H73.125V75.9375H70.3125V73.125Z" fill="#22346D"/>
<path d="M73.125 70.3125H75.9375V73.125H73.125V70.3125Z" fill="#22346D"/>
<path d="M67.5 70.3125H70.3125V73.125H67.5V70.3125Z" fill="#22346D"/>
<path d="M39.375 14.0625H42.1875V16.875H39.375V14.0625Z" fill="#22346D"/>
<path d="M39.375 19.6875H42.1875V22.5H39.375V19.6875Z" fill="#22346D"/>
<path d="M42.1875 16.875H45V19.6875H42.1875V16.875Z" fill="#22346D"/>
<path d="M36.5625 16.875H39.375V19.6875H36.5625V16.875Z" fill="#22346D"/>
<path d="M16.875 28.125H19.6875V30.9375H16.875V28.125Z" fill="#22346D"/>
<path d="M16.875 33.75H19.6875V36.5625H16.875V33.75Z" fill="#22346D"/>
<path d="M19.6875 30.9375H22.5V33.75H19.6875V30.9375Z" fill="#22346D"/>
<path d="M14.0625 30.9375H16.875V33.75H14.0625V30.9375Z" fill="#22346D"/>
<path d="M22.5 11.25H25.3125V14.0625H22.5V11.25Z" fill="#22346D"/>
<path d="M22.5 16.875H25.3125V19.6875H22.5V16.875Z" fill="#22346D"/>
<path d="M25.3125 14.0625H28.125V16.875H25.3125V14.0625Z" fill="#22346D"/>
<path d="M19.6875 14.0625H22.5V16.875H19.6875V14.0625Z" fill="#22346D"/>
<path d="M80.1562 40.7812H82.9688V43.5938H80.1562V40.7812Z" fill="#22346D"/>
<path d="M80.1562 46.4062H82.9688V49.2188H80.1562V46.4062Z" fill="#22346D"/>
<path d="M82.9688 43.5938H85.7812V46.4062H82.9688V43.5938Z" fill="#22346D"/>
<path d="M77.3438 43.5938H80.1562V46.4062H77.3438V43.5938Z" fill="#22346D"/>
<path d="M47.8125 71.7188H50.625V74.5312H47.8125V71.7188Z" fill="#22346D"/>
<path d="M47.8125 77.3438H50.625V80.1562H47.8125V77.3438Z" fill="#22346D"/>
<path d="M50.625 74.5312H53.4375V77.3438H50.625V74.5312Z" fill="#22346D"/>
<path d="M45 74.5312H47.8125V77.3438H45V74.5312Z" fill="#22346D"/>
</svg>
