<svg width="56" height="55" viewBox="0 0 56 55" fill="none" xmlns="http://www.w3.org/2000/svg">
<g clip-path="url(#clip0)">
<path d="M30.393 7.68386C28.6903 7.41928 27.0858 8.58776 26.8153 10.2929C26.6864 11.1192 26.8867 11.9459 27.3796 12.6203C27.8724 13.2951 28.599 13.7374 29.4252 13.866C29.588 13.8914 29.7499 13.9035 29.9097 13.9035C31.4242 13.9035 32.7592 12.8006 33.0004 11.2602C33.2658 9.55885 32.0977 7.95511 30.3963 7.68469C30.3951 7.68427 30.3942 7.68427 30.393 7.68386ZM30.8917 10.931C30.8074 11.4714 30.2966 11.842 29.7541 11.7573C29.4908 11.7164 29.2596 11.5757 29.1031 11.3612C28.9466 11.1472 28.8831 10.8847 28.9236 10.6247C29.0017 10.1331 29.4282 9.78086 29.9106 9.78086C29.9607 9.78086 30.0116 9.78462 30.0629 9.79255C30.6042 9.87935 30.976 10.3901 30.8917 10.931Z" fill="white"/>
<path d="M33.8509 18.3969C33.7198 19.2207 33.9185 20.0461 34.4101 20.7222C34.9034 21.3999 35.6303 21.8439 36.4579 21.9733C36.6202 21.9987 36.7813 22.0112 36.9411 22.0108C38.4535 22.0108 39.7906 20.9087 40.0355 19.3675C40.1645 18.5417 39.9642 17.715 39.4717 17.0393C38.9789 16.3633 38.2519 15.9201 37.4252 15.7916H37.4256C35.72 15.5257 34.1163 16.6959 33.8509 18.3969ZM37.7474 18.2967C37.9043 18.512 37.9677 18.7754 37.9272 19.0354C37.8408 19.577 37.3288 19.9484 36.7867 19.8646C36.5242 19.8237 36.293 19.6822 36.1361 19.4664C35.9804 19.2524 35.9174 18.992 35.9592 18.7291C36.036 18.2391 36.4604 17.8882 36.9424 17.8882C36.9933 17.8882 37.045 17.8919 37.0968 17.9003C37.3593 17.9412 37.5905 18.0818 37.7474 18.2967Z" fill="white"/>
<path d="M41.2374 29.6888C41.7303 30.3645 42.4572 30.8081 43.2835 30.9366C43.4467 30.9625 43.6103 30.975 43.7726 30.975C44.4299 30.975 45.0684 30.768 45.61 30.3732C46.2865 29.8804 46.7297 29.1542 46.8586 28.3284C46.9876 27.5034 46.7873 26.6771 46.2944 26.0019C45.8012 25.3266 45.0746 24.8834 44.2483 24.7545C42.5432 24.4887 40.9399 25.6571 40.6736 27.3602C40.5447 28.1865 40.745 29.0132 41.2374 29.6888ZM42.7823 27.6899C42.8587 27.2012 43.2831 26.8515 43.7643 26.8515C43.8156 26.8515 43.8673 26.8553 43.9191 26.8636H43.9199C44.1824 26.9045 44.4136 27.0456 44.5705 27.2605C44.727 27.475 44.7908 27.737 44.7499 27.9991C44.709 28.2612 44.568 28.492 44.3531 28.6485C44.1382 28.8054 43.8748 28.8692 43.6123 28.8279C43.3494 28.787 43.1187 28.6464 42.9618 28.4315C42.8048 28.2161 42.741 27.9528 42.7823 27.6899Z" fill="white"/>
<path d="M54.0058 6.79881C53.142 5.61447 51.8729 4.83826 50.4328 4.61249L44.4335 3.67437C43.8526 3.5834 43.305 3.98151 43.2145 4.56409C43.1231 5.14624 43.5216 5.69209 44.1038 5.78306L50.1027 6.72119C50.9799 6.85848 51.7536 7.33297 52.2819 8.0566C52.8098 8.78022 53.0247 9.66117 52.887 10.5371L49.4346 32.5647C49.1767 34.2102 47.7499 35.3895 46.1328 35.3895C45.9629 35.3895 45.791 35.3766 45.6178 35.3494L33.6308 33.4723V25.997C33.6308 22.979 31.1741 20.5235 28.1544 20.5235H21.9727L24.2392 6.05641C24.3765 5.17921 24.8518 4.40551 25.5771 3.87719C26.3011 3.35012 27.1817 3.13603 28.0584 3.27458L35.7203 4.47895C36.3017 4.57035 36.8488 4.17264 36.9402 3.59049C37.0316 3.00833 36.6339 2.46207 36.0517 2.37068L28.3906 1.16631C26.9509 0.938869 25.5061 1.289 24.3205 2.152C23.1341 3.01585 22.3567 4.2849 22.1305 5.72589L19.8127 20.5239H5.84058C2.82089 20.5235 0.364151 22.979 0.364151 25.997V48.2908C0.364151 51.3105 2.82089 53.7668 5.84058 53.7668H28.1544C31.1741 53.7668 33.6308 51.3105 33.6308 48.2908V35.6328L45.289 37.4581C45.5727 37.5024 45.8544 37.5236 46.1328 37.5236C48.7827 37.5236 51.1205 35.5911 51.5433 32.8952L54.9957 10.868C55.2215 9.42831 54.8701 7.98315 54.0058 6.79881ZM31.4967 48.2908C31.4967 50.1332 29.9973 51.6326 28.1544 51.6326H5.84058C3.99771 51.6326 2.4983 50.1332 2.4983 48.2908V25.997C2.4983 24.1558 3.99771 22.658 5.84058 22.658H20.7229H20.727H20.7304H28.1544C29.9973 22.658 31.4963 24.1558 31.4963 25.997V48.2908H31.4967Z" fill="white"/>
<path d="M8.82969 26.6548C7.10409 26.6548 5.70024 28.0578 5.70024 29.7826C5.70024 31.5073 7.10409 32.9108 8.82969 32.9108C10.557 32.9108 11.9621 31.5073 11.9621 29.7826C11.9621 28.0578 10.557 26.6548 8.82969 26.6548ZM8.82969 30.7762C8.28092 30.7762 7.83439 30.3305 7.83439 29.7826C7.83439 29.2351 8.28092 28.7889 8.82969 28.7889C9.38013 28.7889 9.82791 29.2351 9.82791 29.7826C9.82791 30.3305 9.38013 30.7762 8.82969 30.7762Z" fill="white"/>
<path d="M17.0336 33.5752C15.308 33.5752 13.9042 34.9786 13.9042 36.703C13.9042 38.4294 15.308 39.8341 17.0336 39.8341C18.7592 39.8341 20.1631 38.4298 20.1631 36.703C20.1631 34.9786 18.7592 33.5752 17.0336 33.5752ZM17.0336 37.6999C16.4849 37.6999 16.0383 37.253 16.0383 36.7034C16.0383 36.1555 16.4849 35.7098 17.0336 35.7098C17.5824 35.7098 18.0289 36.1555 18.0289 36.7034C18.0289 37.253 17.5824 37.6999 17.0336 37.6999Z" fill="white"/>
<path d="M25.1623 26.6875C23.4368 26.6875 22.0329 28.0909 22.0329 29.8157C22.0329 31.5405 23.4368 32.9435 25.1623 32.9435C26.8896 32.9435 28.2947 31.5405 28.2947 29.8157C28.2947 28.0909 26.8892 26.6875 25.1623 26.6875ZM25.1623 30.8093C24.6136 30.8093 24.1671 30.3636 24.1671 29.8157C24.1671 29.2678 24.6136 28.8221 25.1623 28.8221C25.7128 28.8221 26.1606 29.2678 26.1606 29.8157C26.1606 30.3636 25.7128 30.8093 25.1623 30.8093Z" fill="white"/>
<path d="M8.82969 41.3438C7.10409 41.3438 5.70024 42.7468 5.70024 44.4715C5.70024 46.1963 7.10409 47.5997 8.82969 47.5997C10.557 47.5997 11.9621 46.1963 11.9621 44.4715C11.9621 42.7468 10.557 41.3438 8.82969 41.3438ZM8.82969 45.4651C8.28092 45.4651 7.83439 45.0195 7.83439 44.4715C7.83439 43.9236 8.28092 43.4779 8.82969 43.4779C9.38013 43.4779 9.82791 43.9236 9.82791 44.4715C9.82791 45.0195 9.38013 45.4651 8.82969 45.4651Z" fill="white"/>
<path d="M25.1623 41.377C23.4368 41.377 22.0329 42.78 22.0329 44.5047C22.0329 46.2295 23.4368 47.6329 25.1623 47.6329C26.8896 47.6329 28.2947 46.2295 28.2947 44.5047C28.2947 42.78 26.8892 41.377 25.1623 41.377ZM25.1623 45.4984C24.6136 45.4984 24.1671 45.0527 24.1671 44.5047C24.1671 43.9568 24.6136 43.5111 25.1623 43.5111C25.7128 43.5111 26.1606 43.9568 26.1606 44.5047C26.1606 45.0527 25.7128 45.4984 25.1623 45.4984Z" fill="white"/>
<path d="M39.9287 5.13094L39.9471 5.13386C40.0064 5.14388 40.0652 5.14888 40.1236 5.14888C40.6361 5.14888 41.088 4.77872 41.1748 4.25708C41.2717 3.67576 40.879 3.12574 40.2981 3.02892L40.2797 3.026C39.6971 2.92877 39.1484 3.32188 39.0515 3.9032C38.9547 4.4841 39.3474 5.03412 39.9287 5.13094Z" fill="white"/>
</g>
<defs>
<clipPath id="clip0">
<rect width="54.6983" height="54.6983" fill="white" transform="translate(0.364197 0.0302734)"/>
</clipPath>
</defs>
</svg>
