<svg width="102" height="103" viewBox="0 0 102 103" fill="none" xmlns="http://www.w3.org/2000/svg">
<path d="M78.0938 77.167C80.7298 77.167 82.875 75.0218 82.875 72.3857C82.875 69.7497 80.7298 67.6045 78.0938 67.6045C75.4577 67.6045 73.3125 69.7497 73.3125 72.3857C73.3125 75.0218 75.4577 77.167 78.0938 77.167ZM78.0938 70.792C78.9719 70.792 79.6875 71.506 79.6875 72.3857C79.6875 73.2655 78.9719 73.9795 78.0938 73.9795C77.2156 73.9795 76.5 73.2655 76.5 72.3857C76.5 71.506 77.2156 70.792 78.0938 70.792Z" fill="#17234C"/>
<path d="M94.2862 65.6569C93.8033 64.4999 94.0599 63.185 94.9381 62.3053L97.257 59.9848L90.4931 53.2209L88.171 55.5414C87.2929 56.4211 85.9764 56.6762 84.7588 56.1662C83.6145 55.6944 82.875 54.5883 82.875 53.3484V50.0732H79.6062C79.4612 47.5025 78.9847 45.0179 78.1942 42.6639L96.637 24.221C99.0675 21.7906 100.406 18.56 100.406 15.1239C100.406 8.03171 94.6353 2.26074 87.5431 2.26074C84.107 2.26074 80.8764 3.59949 78.4476 6.02837L60.0238 24.4537C57.6412 23.6536 55.1151 23.1883 52.5061 23.0496C50.3067 19.2071 46.1741 16.6045 41.4375 16.6045C40.2247 16.6045 39.0548 16.7862 37.9408 17.1033C35.19 11.9316 29.8462 8.63574 23.9062 8.63574C15.1183 8.63574 7.96875 15.7853 7.96875 24.5732C7.96875 25.7941 8.11856 26.9957 8.39109 28.1719C4.4625 29.3609 1.59375 33.0121 1.59375 37.3232C1.59375 42.597 5.88253 46.8857 11.1562 46.8857H22.7173C22.4527 48.462 22.3125 50.0621 22.3125 51.667C22.3125 55.1748 22.9612 58.0292 24.0082 60.4677L9.79041 74.6871L1.87903 95.2561C1.68938 95.7469 1.59375 96.2633 1.59375 96.7908C1.59375 99.1528 3.51581 101.073 5.87616 101.073C6.40369 101.073 6.92006 100.976 7.41253 100.788L27.9815 92.8766L38.3775 82.479C38.2994 82.8216 38.25 83.1754 38.25 83.542C38.25 84.7708 38.7297 85.8816 39.4931 86.7295C38.7281 87.5774 38.25 88.6882 38.25 89.917C38.25 92.1323 39.772 93.9842 41.82 94.5229C43.1779 98.4117 46.8148 101.073 51 101.073C55.1852 101.073 58.8221 98.4117 60.18 94.5229C62.228 93.9842 63.75 92.1323 63.75 89.917C63.75 89.7975 63.7229 89.6859 63.7149 89.5696L65.6944 91.549L68.0165 89.2285C68.8946 88.3487 70.2063 88.0921 71.4271 88.6006C72.5714 89.0771 73.3125 90.1832 73.3125 91.4231V94.6982H82.875V91.4231C82.875 90.1832 83.6161 89.0755 84.8226 88.5767C85.9796 88.0953 87.2945 88.3487 88.1726 89.2285L90.4931 91.549L97.257 84.7851L94.9381 82.4646C94.0599 81.5849 93.8033 80.27 94.3117 79.0524C94.7851 77.9081 95.8912 77.167 97.1311 77.167H100.406V67.6045H97.1311C95.8912 67.6045 94.7851 66.8634 94.2862 65.6569ZM70.4055 70.3553C72.1443 68.658 73.8863 66.924 75.3892 64.919C76.2562 64.6035 77.1582 64.417 78.0938 64.417C82.4877 64.417 86.0625 67.9918 86.0625 72.3857C86.0625 76.7797 82.4877 80.3545 78.0938 80.3545C73.6998 80.3545 70.125 76.7797 70.125 72.3857C70.125 71.6956 70.2318 71.0167 70.4055 70.3553ZM72.3196 32.6026L79.6875 25.2331L85.4027 30.9482L76.8905 39.4605C75.6967 36.9551 74.154 34.6505 72.3196 32.6026ZM73.9723 15.0107L76.5 12.4831L90.1839 26.167L87.6562 28.6947L73.9723 15.0107ZM87.5431 5.44824C92.8774 5.44824 97.2188 9.78962 97.2188 15.1239C97.2188 17.7074 96.2131 20.1378 94.3851 21.9659L92.4375 23.9134L78.7536 10.2295L80.7011 8.28193C82.5292 6.45549 84.958 5.44824 87.5431 5.44824ZM71.7188 17.2643L77.4339 22.9795L70.0692 30.3442C68.0228 28.5082 65.7199 26.9639 63.2145 25.7686L71.7188 17.2643ZM76.5 51.667C76.5 59.9593 72.3244 64.0329 67.9033 68.344C64.8592 71.3131 61.7323 74.3827 59.9122 78.8564C59.6078 78.7942 59.2923 78.7607 58.9688 78.7607H52.5938V70.792C52.5938 68.1559 50.4486 66.0107 47.8125 66.0107H44.625C43.7468 66.0107 43.0312 65.2967 43.0312 64.417C43.0312 63.5372 43.7468 62.8232 44.625 62.8232H60.5625C63.1986 62.8232 65.3438 60.6781 65.3438 58.042C65.3438 55.4059 63.1986 53.2607 60.5625 53.2607H47.8125C46.9343 53.2607 46.2188 52.5467 46.2188 51.667V46.8857H54.1875C58.5815 46.8857 62.1562 43.311 62.1562 38.917C62.1562 34.523 58.5815 30.9482 54.1875 30.9482C54.1429 30.9482 54.1014 30.961 54.0568 30.961C54.1253 30.4287 54.1875 29.8964 54.1875 29.3545C54.1875 28.3122 54.0472 27.3033 53.8114 26.3327C66.5167 27.748 76.5 38.6524 76.5 51.667ZM41.4375 83.542C41.4375 82.6622 42.1531 81.9482 43.0312 81.9482H58.9688C59.8469 81.9482 60.5625 82.6622 60.5625 83.542C60.5625 84.4217 59.8469 85.1357 58.9688 85.1357H43.0312C42.1531 85.1357 41.4375 84.4217 41.4375 83.542ZM21.3786 83.542L33.0942 71.8263C35.0545 73.7707 36.8746 75.7374 38.2165 78.1328L27.0938 89.2572L21.3786 83.542ZM4.78125 37.3232C4.78125 33.8074 7.64044 30.9482 11.1562 30.9482C14.6721 30.9482 17.5312 33.8074 17.5312 37.3232H20.7188C20.7188 32.1882 16.6467 27.9966 11.5642 27.7815C11.2933 26.7391 11.1562 25.6634 11.1562 24.5732C11.1562 17.5432 16.8762 11.8232 23.9062 11.8232C28.568 11.8232 32.7755 14.3573 35.0131 18.3592C31.6152 20.353 29.215 23.864 28.7672 27.9616C25.9845 28.6469 23.9062 31.1443 23.9062 34.1357H27.0938C27.0938 32.3778 28.5233 30.9482 30.2812 30.9482C32.0392 30.9482 33.4688 32.3778 33.4688 34.1357H36.6562C36.6562 31.2112 34.6673 28.768 31.9786 28.0189C32.632 23.3779 36.618 19.792 41.4375 19.792C46.7112 19.792 51 24.0808 51 29.3545C51 30.1928 50.8629 31.0136 50.6494 31.8136C48.0356 33.1221 46.2188 35.7996 46.2188 38.917H49.4062C49.4062 36.2809 51.5514 34.1357 54.1875 34.1357C56.8236 34.1357 58.9688 36.2809 58.9688 38.917C58.9688 41.5531 56.8236 43.6982 54.1875 43.6982H11.1562C7.64044 43.6982 4.78125 40.8391 4.78125 37.3232ZM43.0312 46.8857V51.667C43.0312 54.3031 45.1764 56.4482 47.8125 56.4482H60.5625C61.4407 56.4482 62.1562 57.1622 62.1562 58.042C62.1562 58.9217 61.4407 59.6357 60.5625 59.6357H44.625C41.9889 59.6357 39.8438 61.7809 39.8438 64.417C39.8438 67.0531 41.9889 69.1982 44.625 69.1982H47.8125C48.6907 69.1982 49.4062 69.9122 49.4062 70.792V78.7607H43.0312C42.7077 78.7607 42.3922 78.7942 42.0878 78.8564C40.2677 74.3827 37.1407 71.3131 34.0967 68.344C29.6756 64.0329 25.5 59.9593 25.5 51.667C25.5 50.0557 25.6928 48.4588 25.9909 46.8857H43.0312ZM30.8183 69.5951L19.125 81.2884L13.4098 75.5732L25.5701 63.4129C27.0667 65.7621 28.9218 67.7224 30.8183 69.5951ZM11.7635 78.434L24.233 90.9035L13.676 94.9644L7.70259 88.991L11.7635 78.434ZM6.26981 97.8124C5.57972 98.0802 4.78125 97.5303 4.78125 96.7908C4.78125 96.6554 4.80675 96.5231 4.85297 96.3988L6.44991 92.2455L10.4199 96.2155L6.26981 97.8124ZM51 97.8857C48.646 97.8857 46.5471 96.6331 45.3836 94.6982H56.6164C55.4529 96.6331 53.354 97.8857 51 97.8857ZM58.9688 91.5107H43.0312C42.1531 91.5107 41.4375 90.7967 41.4375 89.917C41.4375 89.0372 42.1531 88.3232 43.0312 88.3232H58.9688C59.8469 88.3232 60.5625 89.0372 60.5625 89.917C60.5625 90.7967 59.8469 91.5107 58.9688 91.5107ZM97.2188 73.9795H97.1311C94.5954 73.9795 92.3323 75.4936 91.3442 77.8874C90.3624 80.2413 90.8884 82.922 92.6829 84.7182L92.7499 84.7851L90.4931 87.0419L90.4262 86.9749C88.6284 85.1772 85.9446 84.6497 83.5428 85.6569C81.2016 86.6259 79.6875 88.8874 79.6875 91.4231V91.5107H76.5V91.4231C76.5 88.8874 74.9859 86.6243 72.5921 85.6346C70.235 84.6512 67.5543 85.1788 65.7597 86.9749L65.6928 87.0419L63.5332 84.8823C63.6607 84.4536 63.75 84.0106 63.75 83.542C63.75 82.4104 63.3388 81.3841 62.679 80.5633C63.6703 77.8874 65.2242 75.747 67.0331 73.7707C67.7184 79.2691 72.412 83.542 78.0938 83.542C84.2456 83.542 89.25 78.536 89.25 72.3857C89.25 66.2355 84.2456 61.2295 78.0938 61.2295C77.9376 61.2295 77.7862 61.2454 77.6316 61.2518C78.7105 59.0126 79.4516 56.4164 79.6381 53.2607H79.6875V53.3484C79.6875 55.8841 81.2016 58.1488 83.5938 59.1353C85.9462 60.1202 88.63 59.5943 90.4262 57.7966L90.4931 57.7296L92.7499 59.9864L92.6829 60.0533C90.8884 61.8495 90.3624 64.5317 91.3649 66.9351C92.3323 69.2779 94.5954 70.792 97.1311 70.792H97.2188V73.9795Z" fill="#3153D2"/>
</svg>
