<svg width="77" height="77" viewBox="0 0 77 77" fill="none" xmlns="http://www.w3.org/2000/svg">
<g clip-path="url(#clip0)">
<path d="M65.7239 11.2764C58.4521 4.00478 48.7839 0 38.5001 0C28.2164 0 18.5481 4.00478 11.2763 11.2764C4.94944 17.6033 1.00513 25.9855 0.169552 34.8789C-0.654744 43.6553 1.56579 52.5074 6.42268 59.8041C6.88303 60.4957 7.81696 60.6827 8.50786 60.2228C9.19936 59.7626 9.38675 58.8289 8.9264 58.1374C-0.395319 44.1325 1.48743 25.319 13.4033 13.4033C27.2417 -0.435233 49.7586 -0.435233 63.597 13.4033C70.3007 20.1069 73.9925 29.0198 73.9925 38.5002C73.9925 47.9806 70.3007 56.8936 63.597 63.5971C51.1978 75.9964 31.9053 77.5468 17.7245 67.2834C17.0516 66.7965 16.1112 66.9469 15.6244 67.6199C15.1374 68.2928 15.2881 69.233 15.9608 69.72C22.5129 74.462 30.424 77.0003 38.5084 77C39.4708 77 40.4369 76.9639 41.4022 76.8914C50.574 76.2022 59.2116 72.236 65.7239 65.7239C72.9956 58.4522 77.0002 48.784 77.0002 38.5001C77.0002 28.2162 72.9956 18.5482 65.7239 11.2764Z" fill="#22346D"/>
<path d="M60.0383 17.0768L59.9852 17.0235C59.4001 16.4337 58.4479 16.4299 57.8582 17.0146C57.2685 17.5995 57.2646 18.5518 57.8493 19.1415L57.9024 19.1947C58.1966 19.4913 58.5834 19.6396 58.9703 19.6396C59.3532 19.6396 59.7361 19.4943 60.0294 19.2036C60.6191 18.6187 60.623 17.6664 60.0383 17.0768Z" fill="#5377F3"/>
<path d="M64.5853 22.9173C64.1589 22.2045 63.2352 21.9721 62.5225 22.3989C61.8098 22.8253 61.5778 23.7488 62.0043 24.4617C68.4497 35.2338 66.7432 48.9657 57.8539 57.8549C47.182 68.527 29.817 68.527 19.1451 57.8549C8.473 47.183 8.473 29.8182 19.1451 19.1461C28.0289 10.262 41.7554 8.55237 52.5251 14.9879C53.2381 15.4138 54.1613 15.1813 54.5876 14.4683C55.0136 13.7553 54.781 12.8321 54.0681 12.406C48.3654 8.99828 41.5704 7.55106 34.9368 8.32979C28.0955 9.13333 21.8995 12.138 17.0182 17.0193C5.17356 28.8641 5.17356 48.1369 17.0182 59.9818C22.9407 65.9042 30.7201 68.8654 38.4996 68.8654C46.279 68.8654 54.0585 65.9042 59.9809 59.9818C64.8643 55.0984 67.8692 48.8994 68.6711 42.0549C69.4489 35.4171 67.9978 28.6205 64.5853 22.9173Z" fill="#22346D"/>
<path d="M52.9376 31.4817C52.9376 25.403 48.1247 20.4285 42.1095 20.1652V16.8438C42.1095 16.0131 41.436 15.3398 40.6055 15.3398C39.7751 15.3398 39.1016 16.0131 39.1016 16.8438V20.1524H34.2879V16.8438C34.2879 16.0131 33.6144 15.3398 32.784 15.3398C31.9535 15.3398 31.2801 16.0131 31.2801 16.8438V20.1524H25.5652C24.7347 20.1524 24.0613 20.8257 24.0613 21.6563V27.6719C24.0613 28.5026 24.7347 29.1759 25.5652 29.1759H27.6719V47.8244H25.5652C24.7347 47.8244 24.0613 48.4977 24.0613 49.3283V55.344C24.0613 56.1746 24.7347 56.8479 25.5652 56.8479H31.2801V60.1565C31.2801 60.9871 31.9535 61.6604 32.784 61.6604C33.6144 61.6604 34.2879 60.9871 34.2879 60.1565V56.8479H39.1016V60.1565C39.1016 60.9871 39.7751 61.6604 40.6055 61.6604C41.436 61.6604 42.1095 60.9871 42.1095 60.1565V56.8351C48.1247 56.5716 52.9376 51.5973 52.9376 45.5183C52.9376 42.9376 52.0797 40.4928 50.4968 38.5C52.0797 36.5073 52.9376 34.0625 52.9376 31.4817ZM41.6081 53.8401H27.0691V50.8322H29.1758C30.0063 50.8322 30.6797 50.1589 30.6797 49.3283V27.6719C30.6797 26.8413 30.0063 26.168 29.1758 26.168H27.0691V23.1602H41.6081C46.1968 23.1602 49.9298 26.8934 49.9298 31.4818C49.9298 33.7326 49.0397 35.8433 47.4232 37.4253C47.134 37.7082 46.9712 38.0957 46.9712 38.5001C46.9712 38.9045 47.134 39.2921 47.4232 39.575C49.0397 41.1569 49.9298 43.2677 49.9298 45.5185C49.9298 50.107 46.1968 53.8401 41.6081 53.8401Z" fill="#5377F3"/>
<path d="M41.348 25.7671H34.7401C33.9097 25.7671 33.2362 26.4404 33.2362 27.271V35.6929C33.2362 36.5235 33.9097 37.1968 34.7401 37.1968H41.348C44.4992 37.1968 47.0629 34.6331 47.0629 31.482C47.0629 28.3308 44.4992 25.7671 41.348 25.7671ZM41.348 34.189H36.244V28.7749H41.348C42.8407 28.7749 44.0551 29.9893 44.0551 31.482C44.0551 32.9746 42.8407 34.189 41.348 34.189Z" fill="#5377F3"/>
<path d="M41.348 39.8037H34.7401C33.9097 39.8037 33.2362 40.477 33.2362 41.3076V49.7295C33.2362 50.5602 33.9097 51.2335 34.7401 51.2335H41.348C44.4992 51.2335 47.0629 48.6697 47.0629 45.5186C47.0629 42.3674 44.4992 39.8037 41.348 39.8037ZM41.348 48.2256H36.244V42.8115H41.348C42.8407 42.8115 44.0551 44.026 44.0551 45.5186C44.0551 47.0112 42.8407 48.2256 41.348 48.2256Z" fill="#5377F3"/>
<path d="M13.46 63.4176L13.4069 63.3643C12.8219 62.7745 11.8696 62.7707 11.2799 63.3555C10.6902 63.9403 10.6863 64.8926 11.271 65.4823L11.3241 65.5355C11.6183 65.8319 12.0051 65.9804 12.3921 65.9804C12.7749 65.9804 13.1578 65.8351 13.4511 65.5444C14.0408 64.9595 14.0447 64.0073 13.46 63.4176Z" fill="#5377F3"/>
</g>
<defs>
<clipPath id="clip0">
<rect width="77" height="77" fill="white"/>
</clipPath>
</defs>
</svg>
